<mxfile host="app.diagrams.net" agent="Mozilla/5.0 (Macintosh; Intel Mac OS X 10_15_7) AppleWebKit/537.36 (KHTML, like Gecko) Chrome/133.0.0.0 Safari/537.36" version="26.0.16">
  <diagram name="Page-1" id="2NRcpRsxniAUh_VQ4GuZ">
    <mxGraphModel dx="1230" dy="705" grid="1" gridSize="10" guides="1" tooltips="1" connect="1" arrows="1" fold="1" page="1" pageScale="1" pageWidth="850" pageHeight="1100" background="#ffffff" math="0" shadow="0">
      <root>
        <mxCell id="0" />
        <mxCell id="1" parent="0" />
        <mxCell id="KWLnXYTSGP2t3y_5yK3n-1" value="" style="whiteSpace=wrap;html=1;aspect=fixed;" vertex="1" parent="1">
          <mxGeometry x="390" y="95" width="910" height="910" as="geometry" />
        </mxCell>
        <mxCell id="KWLnXYTSGP2t3y_5yK3n-2" value="&lt;b&gt;&lt;font style=&quot;font-size: 20px;&quot;&gt;&lt;u&gt;Diagramme de cas d&#39;utilisation évalation par les pairs&lt;/u&gt;&lt;/font&gt;&lt;/b&gt;" style="text;html=1;align=center;verticalAlign=middle;whiteSpace=wrap;rounded=0;" vertex="1" parent="1">
          <mxGeometry x="575" y="50" width="540" height="30" as="geometry" />
        </mxCell>
        <mxCell id="KWLnXYTSGP2t3y_5yK3n-3" value="Enseignant" style="shape=umlActor;verticalLabelPosition=bottom;verticalAlign=top;html=1;outlineConnect=0;" vertex="1" parent="1">
          <mxGeometry x="260" y="450" width="50" height="90" as="geometry" />
        </mxCell>
        <mxCell id="KWLnXYTSGP2t3y_5yK3n-5" value="Élève" style="shape=umlActor;verticalLabelPosition=bottom;verticalAlign=top;html=1;outlineConnect=0;" vertex="1" parent="1">
          <mxGeometry x="260" y="180" width="60" height="80" as="geometry" />
        </mxCell>
        <mxCell id="KWLnXYTSGP2t3y_5yK3n-6" value="&amp;lt;&amp;lt; Système &amp;gt;&amp;gt;" style="shape=umlActor;verticalLabelPosition=bottom;verticalAlign=top;html=1;outlineConnect=0;" vertex="1" parent="1">
          <mxGeometry x="1380" y="190" width="50" height="80" as="geometry" />
        </mxCell>
        <mxCell id="KWLnXYTSGP2t3y_5yK3n-7" value="Créer cours" style="ellipse;whiteSpace=wrap;html=1;" vertex="1" parent="1">
          <mxGeometry x="470" y="360" width="120" height="80" as="geometry" />
        </mxCell>
        <mxCell id="KWLnXYTSGP2t3y_5yK3n-8" value="Créer un travail" style="ellipse;whiteSpace=wrap;html=1;" vertex="1" parent="1">
          <mxGeometry x="560" y="500" width="120" height="80" as="geometry" />
        </mxCell>
        <mxCell id="KWLnXYTSGP2t3y_5yK3n-9" value="Créer un groupe" style="ellipse;whiteSpace=wrap;html=1;" vertex="1" parent="1">
          <mxGeometry x="410" y="465" width="120" height="60" as="geometry" />
        </mxCell>
        <mxCell id="KWLnXYTSGP2t3y_5yK3n-10" value="Crée un cours" style="ellipse;whiteSpace=wrap;html=1;" vertex="1" parent="1">
          <mxGeometry x="590" y="410" width="120" height="80" as="geometry" />
        </mxCell>
        <mxCell id="KWLnXYTSGP2t3y_5yK3n-11" value="Crée des équipe" style="ellipse;whiteSpace=wrap;html=1;" vertex="1" parent="1">
          <mxGeometry x="510" y="630" width="120" height="80" as="geometry" />
        </mxCell>
        <mxCell id="KWLnXYTSGP2t3y_5yK3n-12" value="Crée une évaluation" style="ellipse;whiteSpace=wrap;html=1;" vertex="1" parent="1">
          <mxGeometry x="410" y="700" width="120" height="80" as="geometry" />
        </mxCell>
        <mxCell id="KWLnXYTSGP2t3y_5yK3n-13" value="Assigner élèves dans une équipe" style="ellipse;whiteSpace=wrap;html=1;" vertex="1" parent="1">
          <mxGeometry x="410" y="540" width="130" height="60" as="geometry" />
        </mxCell>
        <mxCell id="KWLnXYTSGP2t3y_5yK3n-15" value="" style="endArrow=none;html=1;rounded=0;" edge="1" parent="1" target="KWLnXYTSGP2t3y_5yK3n-10">
          <mxGeometry width="50" height="50" relative="1" as="geometry">
            <mxPoint x="330" y="470" as="sourcePoint" />
            <mxPoint x="360" y="410" as="targetPoint" />
          </mxGeometry>
        </mxCell>
        <mxCell id="KWLnXYTSGP2t3y_5yK3n-16" value="" style="endArrow=none;html=1;rounded=0;entryX=0;entryY=0.5;entryDx=0;entryDy=0;" edge="1" parent="1" target="KWLnXYTSGP2t3y_5yK3n-9">
          <mxGeometry width="50" height="50" relative="1" as="geometry">
            <mxPoint x="300" y="510" as="sourcePoint" />
            <mxPoint x="405" y="447" as="targetPoint" />
          </mxGeometry>
        </mxCell>
        <mxCell id="KWLnXYTSGP2t3y_5yK3n-18" value="" style="endArrow=none;html=1;rounded=0;" edge="1" parent="1" target="KWLnXYTSGP2t3y_5yK3n-8">
          <mxGeometry width="50" height="50" relative="1" as="geometry">
            <mxPoint x="330" y="520" as="sourcePoint" />
            <mxPoint x="380" y="500" as="targetPoint" />
          </mxGeometry>
        </mxCell>
        <mxCell id="KWLnXYTSGP2t3y_5yK3n-19" value="" style="endArrow=none;html=1;rounded=0;" edge="1" parent="1" target="KWLnXYTSGP2t3y_5yK3n-11">
          <mxGeometry width="50" height="50" relative="1" as="geometry">
            <mxPoint x="320" y="560" as="sourcePoint" />
            <mxPoint x="830" y="430" as="targetPoint" />
          </mxGeometry>
        </mxCell>
        <mxCell id="KWLnXYTSGP2t3y_5yK3n-20" value="" style="endArrow=none;html=1;rounded=0;" edge="1" parent="1" target="KWLnXYTSGP2t3y_5yK3n-13">
          <mxGeometry width="50" height="50" relative="1" as="geometry">
            <mxPoint x="330" y="540" as="sourcePoint" />
            <mxPoint x="830" y="430" as="targetPoint" />
          </mxGeometry>
        </mxCell>
        <mxCell id="KWLnXYTSGP2t3y_5yK3n-21" value="" style="endArrow=none;html=1;rounded=0;entryX=0.042;entryY=0.625;entryDx=0;entryDy=0;entryPerimeter=0;" edge="1" parent="1" target="KWLnXYTSGP2t3y_5yK3n-7">
          <mxGeometry width="50" height="50" relative="1" as="geometry">
            <mxPoint x="320" y="460" as="sourcePoint" />
            <mxPoint x="830" y="530" as="targetPoint" />
          </mxGeometry>
        </mxCell>
        <mxCell id="KWLnXYTSGP2t3y_5yK3n-22" value="" style="endArrow=none;html=1;rounded=0;entryX=0;entryY=0;entryDx=0;entryDy=0;" edge="1" parent="1" target="KWLnXYTSGP2t3y_5yK3n-12">
          <mxGeometry width="50" height="50" relative="1" as="geometry">
            <mxPoint x="310" y="570" as="sourcePoint" />
            <mxPoint x="660" y="510" as="targetPoint" />
          </mxGeometry>
        </mxCell>
        <mxCell id="KWLnXYTSGP2t3y_5yK3n-24" value="Connexion" style="ellipse;whiteSpace=wrap;html=1;" vertex="1" parent="1">
          <mxGeometry x="740" y="270" width="120" height="80" as="geometry" />
        </mxCell>
        <mxCell id="KWLnXYTSGP2t3y_5yK3n-25" value="Connexion" style="ellipse;whiteSpace=wrap;html=1;" vertex="1" parent="1">
          <mxGeometry x="890" y="190" width="120" height="80" as="geometry" />
        </mxCell>
      </root>
    </mxGraphModel>
  </diagram>
</mxfile>
